<svg width="106" height="90" viewBox="0 0 106 90" fill="none" xmlns="http://www.w3.org/2000/svg">
<path d="M8.10938 49H0.796875V45.8125H8.10938C8.32812 45.8125 8.51562 45.7344 8.67188 45.5781C8.82812 45.4219 8.90625 45.2344 8.90625 45.0156C8.90625 44.7891 8.82812 44.6406 8.67188 44.5703C8.51562 44.5 8.32812 44.4648 8.10938 44.4648H4.78125C4.22656 44.4648 3.70703 44.3594 3.22266 44.1484C2.73828 43.9375 2.31641 43.6523 1.95703 43.293C1.59766 42.9258 1.3125 42.5 1.10156 42.0156C0.898438 41.5312 0.796875 41.0117 0.796875 40.457C0.796875 39.9023 0.898438 39.3828 1.10156 38.8984C1.3125 38.4141 1.59766 37.9922 1.95703 37.6328C2.31641 37.2734 2.73828 36.9922 3.22266 36.7891C3.70703 36.5781 4.22656 36.4727 4.78125 36.4727H11.2617V39.6602H4.78125C4.5625 39.6602 4.375 39.7383 4.21875 39.8945C4.0625 40.0508 3.98438 40.2383 3.98438 40.457C3.98438 40.6836 4.0625 40.8789 4.21875 41.043C4.375 41.1992 4.5625 41.2773 4.78125 41.2773H8.10938C8.65625 41.2773 9.17188 41.3711 9.65625 41.5586C10.1406 41.7383 10.5625 41.9922 10.9219 42.3203C11.2812 42.6484 11.5664 43.043 11.7773 43.5039C11.9883 43.9648 12.0938 44.4688 12.0938 45.0156C12.0938 45.5703 11.9883 46.0898 11.7773 46.5742C11.5664 47.0508 11.2812 47.4727 10.9219 47.8398C10.5625 48.1992 10.1406 48.4844 9.65625 48.6953C9.17188 48.8984 8.65625 49 8.10938 49ZM29.6484 44.4648C29.6484 45.1211 29.5234 45.7422 29.2734 46.3281C29.0234 46.9062 28.6797 47.4102 28.2422 47.8398C27.8125 48.2695 27.3047 48.6094 26.7188 48.8594C26.1406 49.1094 25.5195 49.2344 24.8555 49.2344C24.2617 49.2344 23.6914 49.1328 23.1445 48.9297C22.5977 48.7188 22.1016 48.4141 21.6562 48.0156C21.2188 48.4141 20.7266 48.7188 20.1797 48.9297C19.6406 49.1328 19.0703 49.2344 18.4688 49.2344C17.8047 49.2344 17.1836 49.1094 16.6055 48.8594C16.0273 48.6094 15.5195 48.2695 15.082 47.8398C14.6523 47.4102 14.3125 46.9062 14.0625 46.3281C13.8125 45.7422 13.6875 45.1211 13.6875 44.4648V36.4727H16.8867V44.4648C16.8867 44.6836 16.9258 44.8906 17.0039 45.0859C17.0898 45.2734 17.2031 45.4414 17.3438 45.5898C17.4922 45.7305 17.6602 45.8438 17.8477 45.9297C18.043 46.0078 18.25 46.0469 18.4688 46.0469C18.6875 46.0469 18.8945 46.0078 19.0898 45.9297C19.2852 45.8438 19.457 45.7305 19.6055 45.5898C19.7539 45.4414 19.8672 45.2734 19.9453 45.0859C20.0312 44.8906 20.0742 44.6836 20.0742 44.4648V36.4727H23.2617V44.4648C23.2617 44.6836 23.3047 44.8906 23.3906 45.0859C23.4766 45.2734 23.5898 45.4414 23.7305 45.5898C23.8789 45.7305 24.0469 45.8438 24.2344 45.9297C24.4297 46.0078 24.6367 46.0469 24.8555 46.0469C25.0742 46.0469 25.2812 46.0078 25.4766 45.9297C25.6719 45.8438 25.8398 45.7305 25.9805 45.5898C26.1289 45.4414 26.2461 45.2734 26.332 45.0859C26.418 44.8906 26.4609 44.6836 26.4609 44.4648V36.4727H29.6484V44.4648ZM44.1211 49H43.3477L42.1055 47.2773C41.8008 47.5508 41.4766 47.8086 41.1328 48.0508C40.7969 48.2852 40.4414 48.4922 40.0664 48.6719C39.6914 48.8438 39.3047 48.9805 38.9062 49.082C38.5156 49.1836 38.1172 49.2344 37.7109 49.2344C36.8281 49.2344 35.9961 49.0859 35.2148 48.7891C34.4414 48.4922 33.7617 48.0625 33.1758 47.5C32.5977 46.9297 32.1406 46.2344 31.8047 45.4141C31.4688 44.5938 31.3008 43.6602 31.3008 42.6133C31.3008 41.6367 31.4688 40.7422 31.8047 39.9297C32.1406 39.1094 32.5977 38.4062 33.1758 37.8203C33.7617 37.2344 34.4414 36.7812 35.2148 36.4609C35.9961 36.1328 36.8281 35.9688 37.7109 35.9688C38.1172 35.9688 38.5195 36.0195 38.918 36.1211C39.3164 36.2227 39.7031 36.3633 40.0781 36.543C40.4531 36.7227 40.8086 36.9336 41.1445 37.1758C41.4883 37.418 41.8086 37.6797 42.1055 37.9609L43.3477 36.4727H44.1211V49ZM40.8984 42.6133C40.8984 42.1758 40.8125 41.7539 40.6406 41.3477C40.4766 40.9336 40.25 40.5703 39.9609 40.2578C39.6719 39.9375 39.332 39.6836 38.9414 39.4961C38.5586 39.3008 38.1484 39.2031 37.7109 39.2031C37.2734 39.2031 36.8594 39.2773 36.4688 39.4258C36.0859 39.5742 35.75 39.793 35.4609 40.082C35.1797 40.3711 34.957 40.7305 34.793 41.1602C34.6289 41.582 34.5469 42.0664 34.5469 42.6133C34.5469 43.1602 34.6289 43.6484 34.793 44.0781C34.957 44.5 35.1797 44.8555 35.4609 45.1445C35.75 45.4336 36.0859 45.6523 36.4688 45.8008C36.8594 45.9492 37.2734 46.0234 37.7109 46.0234C38.1484 46.0234 38.5586 45.9297 38.9414 45.7422C39.332 45.5469 39.6719 45.293 39.9609 44.9805C40.25 44.6602 40.4766 44.2969 40.6406 43.8906C40.8125 43.4766 40.8984 43.0508 40.8984 42.6133ZM49.793 53.7812H46.5703V36.4492H47.3438L48.6211 37.9609C48.9102 37.6875 49.2266 37.4297 49.5703 37.1875C49.9141 36.9453 50.2695 36.7383 50.6367 36.5664C51.0117 36.3867 51.3984 36.2461 51.7969 36.1445C52.1953 36.043 52.5977 35.9922 53.0039 35.9922C53.8867 35.9922 54.7148 36.1523 55.4883 36.4727C56.2695 36.7852 56.9492 37.2305 57.5273 37.8086C58.1133 38.3867 58.5742 39.0859 58.9102 39.9062C59.2461 40.7188 59.4141 41.6211 59.4141 42.6133C59.4141 43.6445 59.2461 44.5742 58.9102 45.4023C58.5742 46.2227 58.1133 46.9219 57.5273 47.5C56.9492 48.0703 56.2695 48.5078 55.4883 48.8125C54.7148 49.1172 53.8867 49.2695 53.0039 49.2695C52.7227 49.2695 52.4414 49.2383 52.1602 49.1758C51.8867 49.1133 51.6133 49.0312 51.3398 48.9297C51.0742 48.8203 50.8086 48.6992 50.543 48.5664C50.2852 48.4336 50.0352 48.2969 49.793 48.1562V53.7812ZM56.2031 42.6133C56.2031 42.082 56.1172 41.6055 55.9453 41.1836C55.7812 40.7617 55.5547 40.4062 55.2656 40.1172C54.9766 39.8203 54.6367 39.5938 54.2461 39.4375C53.8555 39.2812 53.4414 39.2031 53.0039 39.2031C52.5664 39.2031 52.1523 39.2812 51.7617 39.4375C51.3789 39.5938 51.043 39.8203 50.7539 40.1172C50.4648 40.4062 50.2344 40.7617 50.0625 41.1836C49.8984 41.6055 49.8164 42.082 49.8164 42.6133C49.8164 43.1211 49.8984 43.5859 50.0625 44.0078C50.2344 44.4297 50.4648 44.7891 50.7539 45.0859C51.043 45.3828 51.3789 45.6133 51.7617 45.7773C52.1523 45.9414 52.5664 46.0234 53.0039 46.0234C53.4414 46.0234 53.8555 45.9414 54.2461 45.7773C54.6367 45.6133 54.9766 45.3828 55.2656 45.0859C55.5547 44.7891 55.7812 44.4297 55.9453 44.0078C56.1172 43.5859 56.2031 43.1211 56.2031 42.6133ZM64.9688 33.0391C64.9688 33.3359 64.9102 33.6133 64.793 33.8711C64.6836 34.1289 64.5312 34.3555 64.3359 34.5508C64.1406 34.7383 63.9102 34.8906 63.6445 35.0078C63.3867 35.1172 63.1094 35.1719 62.8125 35.1719C62.5156 35.1719 62.2344 35.1172 61.9688 35.0078C61.7109 34.8906 61.4844 34.7383 61.2891 34.5508C61.1016 34.3555 60.9492 34.1289 60.832 33.8711C60.7227 33.6133 60.668 33.3359 60.668 33.0391C60.668 32.75 60.7227 32.4766 60.832 32.2188C60.9492 31.9531 61.1016 31.7266 61.2891 31.5391C61.4844 31.3438 61.7109 31.1914 61.9688 31.082C62.2344 30.9648 62.5156 30.9062 62.8125 30.9062C63.1094 30.9062 63.3867 30.9648 63.6445 31.082C63.9102 31.1914 64.1406 31.3438 64.3359 31.5391C64.5312 31.7266 64.6836 31.9531 64.793 32.2188C64.9102 32.4766 64.9688 32.75 64.9688 33.0391ZM64.418 49H61.1953V36.4492H64.418V49ZM70.9336 49H67.7344V39.6367H66.1758V36.4492H67.7344V35.8516C67.7344 35.0781 67.8789 34.3516 68.168 33.6719C68.4648 32.9922 68.8672 32.4023 69.375 31.9023C69.8906 31.3945 70.4883 30.9961 71.168 30.707C71.8477 30.4102 72.5742 30.2617 73.3477 30.2617H75.75V33.4492H73.3477C73.0039 33.4492 72.6836 33.5117 72.3867 33.6367C72.0977 33.7539 71.8438 33.9219 71.625 34.1406C71.4141 34.3516 71.2461 34.6055 71.1211 34.9023C70.9961 35.1914 70.9336 35.5078 70.9336 35.8516V36.4492H74.8594V39.6367H70.9336V49ZM79.3125 53.7812V50.5586L81.0938 50.582C81.4062 50.582 81.707 50.5312 81.9961 50.4297C82.2852 50.3281 82.5508 50.1875 82.793 50.0078C83.043 49.8281 83.2617 49.6133 83.4492 49.3633C83.6367 49.1211 83.7891 48.8555 83.9062 48.5664C83.5547 48.7148 83.1953 48.8633 82.8281 49.0117C82.4688 49.1602 82.1055 49.2344 81.7383 49.2344C80.9648 49.2344 80.2383 49.0977 79.5586 48.8242C78.8789 48.5508 78.2812 48.1641 77.7656 47.6641C77.2578 47.1562 76.8555 46.543 76.5586 45.8242C76.2695 45.0977 76.125 44.2852 76.125 43.3867V36.4492H79.3125V43.3867C79.3125 43.832 79.375 44.2227 79.5 44.5586C79.6328 44.8867 79.8086 45.1641 80.0273 45.3906C80.2461 45.6094 80.5 45.7734 80.7891 45.8828C81.0859 45.9922 81.4023 46.0469 81.7383 46.0469C82.0664 46.0469 82.375 45.9727 82.6641 45.8242C82.9609 45.668 83.2188 45.4648 83.4375 45.2148C83.6562 44.9648 83.8281 44.6836 83.9531 44.3711C84.0781 44.0508 84.1406 43.7227 84.1406 43.3867V36.4492H87.3633V47.418C87.3555 48.3008 87.1836 49.1289 86.8477 49.9023C86.5117 50.6758 86.0508 51.3516 85.4648 51.9297C84.8867 52.5078 84.2109 52.9648 83.4375 53.3008C82.6641 53.6367 81.8359 53.8047 80.9531 53.8047L79.3125 53.7812Z" fill="#50644C"/>
<path d="M34.236 60.024C33.8813 60.024 33.6187 59.9093 33.448 59.68C33.28 59.448 33.196 59.088 33.196 58.6C33.196 58.1173 33.2813 57.76 33.452 57.528C33.6253 57.2933 33.888 57.176 34.24 57.176C34.3147 57.176 34.388 57.1827 34.46 57.196C34.532 57.2093 34.5933 57.228 34.644 57.252C34.6707 57.2627 34.688 57.276 34.696 57.292C34.7067 57.308 34.712 57.3307 34.712 57.36C34.712 57.4053 34.7013 57.4573 34.68 57.516C34.6587 57.5747 34.628 57.5933 34.588 57.572C34.476 57.516 34.36 57.488 34.24 57.488C34.0107 57.488 33.8413 57.5773 33.732 57.756C33.6227 57.9347 33.568 58.2147 33.568 58.596C33.568 58.9773 33.6213 59.2587 33.728 59.44C33.8373 59.6213 34.0067 59.712 34.236 59.712C34.3747 59.712 34.5 59.6787 34.612 59.612C34.628 59.6067 34.64 59.604 34.648 59.604C34.6827 59.604 34.7093 59.628 34.728 59.676C34.7493 59.7213 34.76 59.7653 34.76 59.808C34.76 59.8347 34.7533 59.8587 34.74 59.88C34.7267 59.9013 34.7013 59.9213 34.664 59.94C34.6187 59.9613 34.5573 59.9813 34.48 60C34.4027 60.016 34.3213 60.024 34.236 60.024ZM35.7959 60.024C35.5453 60.024 35.3533 59.9333 35.2199 59.752C35.0893 59.5707 35.0239 59.308 35.0239 58.964C35.0239 58.6173 35.0893 58.3507 35.2199 58.164C35.3533 57.9773 35.5453 57.884 35.7959 57.884C36.0439 57.884 36.2319 57.9773 36.3599 58.164C36.4906 58.348 36.5559 58.6147 36.5559 58.964C36.5559 59.3107 36.4919 59.5747 36.3639 59.756C36.2359 59.9347 36.0466 60.024 35.7959 60.024ZM35.7879 59.736C35.9293 59.736 36.0333 59.6733 36.0999 59.548C36.1693 59.42 36.2039 59.2227 36.2039 58.956C36.2039 58.6893 36.1693 58.492 36.0999 58.364C36.0333 58.236 35.9293 58.172 35.7879 58.172C35.6466 58.172 35.5426 58.236 35.4759 58.364C35.4119 58.4893 35.3799 58.6867 35.3799 58.956C35.3799 59.2227 35.4119 59.42 35.4759 59.548C35.5426 59.6733 35.6466 59.736 35.7879 59.736ZM37.2022 60.008C37.1035 60.008 37.0542 59.9787 37.0542 59.92V58.508C37.0542 58.3347 37.0475 58.2093 37.0342 58.132C37.0209 58.0547 37.0142 58.012 37.0142 58.004C37.0142 57.972 37.0422 57.9493 37.0982 57.936C37.1569 57.92 37.2062 57.912 37.2462 57.912C37.2835 57.912 37.3089 57.9293 37.3222 57.964C37.3382 57.9987 37.3502 58.0387 37.3582 58.084C37.3662 58.1293 37.3715 58.1627 37.3742 58.184C37.4355 58.0907 37.5102 58.0173 37.5982 57.964C37.6862 57.9107 37.7795 57.884 37.8782 57.884C38.0435 57.884 38.1715 57.94 38.2622 58.052C38.3529 58.1613 38.3982 58.3133 38.3982 58.508V59.92C38.3982 59.9787 38.3475 60.008 38.2462 60.008H38.2062C38.1022 60.008 38.0502 59.9787 38.0502 59.92V58.54C38.0502 58.4227 38.0262 58.3333 37.9782 58.272C37.9302 58.208 37.8595 58.176 37.7662 58.176C37.6942 58.176 37.6249 58.2027 37.5582 58.256C37.4915 58.3067 37.4382 58.3733 37.3982 58.456V59.92C37.3982 59.9787 37.3475 60.008 37.2462 60.008H37.2022ZM39.1319 60.008C39.0332 60.008 38.9839 59.9787 38.9839 59.92V58.508C38.9839 58.3347 38.9772 58.2093 38.9639 58.132C38.9505 58.0547 38.9439 58.012 38.9439 58.004C38.9439 57.972 38.9719 57.9493 39.0279 57.936C39.0865 57.92 39.1359 57.912 39.1759 57.912C39.2132 57.912 39.2385 57.9293 39.2519 57.964C39.2679 57.9987 39.2799 58.0387 39.2879 58.084C39.2959 58.1293 39.3012 58.1627 39.3039 58.184C39.3652 58.0907 39.4399 58.0173 39.5279 57.964C39.6159 57.9107 39.7092 57.884 39.8079 57.884C39.9732 57.884 40.1012 57.94 40.1919 58.052C40.2825 58.1613 40.3279 58.3133 40.3279 58.508V59.92C40.3279 59.9787 40.2772 60.008 40.1759 60.008H40.1359C40.0319 60.008 39.9799 59.9787 39.9799 59.92V58.54C39.9799 58.4227 39.9559 58.3333 39.9079 58.272C39.8599 58.208 39.7892 58.176 39.6959 58.176C39.6239 58.176 39.5545 58.2027 39.4879 58.256C39.4212 58.3067 39.3679 58.3733 39.3279 58.456V59.92C39.3279 59.9787 39.2772 60.008 39.1759 60.008H39.1319ZM41.6256 60.024C41.3429 60.024 41.1322 59.9373 40.9936 59.764C40.8576 59.5907 40.7896 59.3253 40.7896 58.968C40.7896 58.6133 40.8562 58.344 40.9896 58.16C41.1229 57.976 41.3189 57.884 41.5776 57.884C41.8096 57.884 41.9842 57.9733 42.1016 58.152C42.2189 58.328 42.2776 58.5867 42.2776 58.928C42.2776 58.952 42.2616 58.9853 42.2296 59.028C42.1976 59.0707 42.1696 59.092 42.1456 59.092H41.1496C41.1629 59.3187 41.2056 59.4827 41.2776 59.584C41.3496 59.6853 41.4642 59.736 41.6216 59.736C41.7176 59.736 41.7976 59.7227 41.8616 59.696C41.9256 59.6693 41.9776 59.6413 42.0176 59.612C42.0576 59.5827 42.0816 59.568 42.0896 59.568C42.1162 59.568 42.1456 59.5947 42.1776 59.648C42.2122 59.7013 42.2296 59.7413 42.2296 59.768C42.2296 59.8 42.2016 59.8373 42.1456 59.88C42.0922 59.92 42.0189 59.9547 41.9256 59.984C41.8322 60.0107 41.7322 60.024 41.6256 60.024ZM41.9216 58.804C41.9216 58.3827 41.8029 58.172 41.5656 58.172C41.3096 58.172 41.1709 58.3827 41.1496 58.804H41.9216ZM43.4224 60.024C43.1371 60.024 42.9251 59.9387 42.7864 59.768C42.6504 59.5973 42.5824 59.3227 42.5824 58.944C42.5824 58.552 42.6544 58.2773 42.7984 58.12C42.9451 57.9627 43.1491 57.884 43.4104 57.884C43.5331 57.884 43.6464 57.9027 43.7504 57.94C43.8571 57.9773 43.9104 58.02 43.9104 58.068C43.9104 58.1 43.8944 58.144 43.8624 58.2C43.8331 58.256 43.8078 58.284 43.7864 58.284C43.7838 58.284 43.7691 58.2787 43.7424 58.268C43.6304 58.204 43.5224 58.172 43.4184 58.172C43.2611 58.172 43.1424 58.232 43.0624 58.352C42.9851 58.4693 42.9464 58.664 42.9464 58.936C42.9464 59.2187 42.9838 59.4227 43.0584 59.548C43.1331 59.6733 43.2571 59.736 43.4304 59.736C43.5531 59.736 43.6638 59.7067 43.7624 59.648C43.7731 59.6427 43.7824 59.6373 43.7904 59.632C43.8011 59.624 43.8091 59.6187 43.8144 59.616C43.8411 59.616 43.8691 59.6427 43.8984 59.696C43.9304 59.7467 43.9464 59.788 43.9464 59.82C43.9464 59.8493 43.9171 59.88 43.8584 59.912C43.8024 59.944 43.7331 59.9707 43.6504 59.992C43.5678 60.0133 43.4918 60.024 43.4224 60.024ZM44.8433 60.024C44.7259 60.024 44.6219 59.9893 44.5312 59.92C44.4406 59.848 44.3953 59.7213 44.3953 59.54V58.196H44.2633C44.2366 58.196 44.2166 58.1867 44.2033 58.168C44.1899 58.1493 44.1833 58.1187 44.1833 58.076V58.028C44.1833 57.9853 44.1899 57.9547 44.2033 57.936C44.2166 57.9173 44.2366 57.908 44.2633 57.908H44.3953L44.4433 57.488C44.4486 57.4293 44.4913 57.4 44.5713 57.4H44.6113C44.6913 57.4 44.7313 57.4293 44.7313 57.488V57.908H44.9953C45.0246 57.908 45.0446 57.9173 45.0553 57.936C45.0686 57.9547 45.0753 57.9853 45.0753 58.028V58.076C45.0753 58.1187 45.0686 58.1493 45.0553 58.168C45.0446 58.1867 45.0246 58.196 44.9953 58.196H44.7313V59.484C44.7313 59.58 44.7446 59.6467 44.7713 59.684C44.7979 59.7187 44.8366 59.736 44.8873 59.736C44.9219 59.736 44.9513 59.7333 44.9753 59.728C44.9993 59.72 45.0153 59.716 45.0233 59.716C45.0473 59.716 45.0673 59.74 45.0833 59.788C45.0993 59.836 45.1073 59.876 45.1073 59.908C45.1073 59.9507 45.0793 59.9813 45.0233 60C44.9699 60.016 44.9099 60.024 44.8433 60.024ZM45.7227 60.008C45.616 60.008 45.5627 59.9787 45.5627 59.92V57.988C45.5627 57.9293 45.616 57.9 45.7227 57.9H45.7387C45.8453 57.9 45.8987 57.9293 45.8987 57.988V59.92C45.8987 59.9787 45.8453 60.008 45.7387 60.008H45.7227ZM45.7307 57.62C45.6133 57.62 45.5547 57.5907 45.5547 57.532V57.292C45.5547 57.2333 45.6133 57.204 45.7307 57.204C45.848 57.204 45.9067 57.2333 45.9067 57.292V57.532C45.9067 57.5907 45.848 57.62 45.7307 57.62ZM46.6983 60.008C46.5996 60.008 46.5503 59.9787 46.5503 59.92V58.508C46.5503 58.3347 46.5436 58.2093 46.5303 58.132C46.5169 58.0547 46.5103 58.012 46.5103 58.004C46.5103 57.972 46.5383 57.9493 46.5943 57.936C46.6529 57.92 46.7023 57.912 46.7423 57.912C46.7796 57.912 46.8049 57.9293 46.8183 57.964C46.8343 57.9987 46.8463 58.0387 46.8543 58.084C46.8623 58.1293 46.8676 58.1627 46.8703 58.184C46.9316 58.0907 47.0063 58.0173 47.0943 57.964C47.1823 57.9107 47.2756 57.884 47.3743 57.884C47.5396 57.884 47.6676 57.94 47.7583 58.052C47.8489 58.1613 47.8943 58.3133 47.8943 58.508V59.92C47.8943 59.9787 47.8436 60.008 47.7423 60.008H47.7023C47.5983 60.008 47.5463 59.9787 47.5463 59.92V58.54C47.5463 58.4227 47.5223 58.3333 47.4743 58.272C47.4263 58.208 47.3556 58.176 47.2623 58.176C47.1903 58.176 47.1209 58.2027 47.0543 58.256C46.9876 58.3067 46.9343 58.3733 46.8943 58.456V59.92C46.8943 59.9787 46.8436 60.008 46.7423 60.008H46.6983ZM49.048 60.848C48.5733 60.848 48.336 60.676 48.336 60.332C48.336 60.22 48.364 60.1187 48.42 60.028C48.4786 59.94 48.5573 59.8707 48.656 59.82V59.812C48.616 59.78 48.584 59.7387 48.56 59.688C48.5386 59.6373 48.528 59.5813 48.528 59.52C48.528 59.3627 48.5906 59.24 48.716 59.152C48.516 59.0533 48.416 58.86 48.416 58.572C48.416 58.364 48.4733 58.1973 48.588 58.072C48.7026 57.9467 48.8666 57.884 49.08 57.884C49.1466 57.884 49.2093 57.892 49.268 57.908H49.868C49.9213 57.908 49.948 57.9467 49.948 58.024V58.072C49.948 58.112 49.9413 58.1413 49.928 58.16C49.9173 58.176 49.8973 58.184 49.868 58.184C49.7533 58.184 49.676 58.1813 49.636 58.176L49.628 58.184C49.7 58.2987 49.736 58.4267 49.736 58.568C49.736 58.7627 49.6813 58.9227 49.572 59.048C49.4626 59.1707 49.3093 59.236 49.112 59.244C48.92 59.252 48.824 59.3333 48.824 59.488C48.824 59.568 48.8546 59.6227 48.916 59.652C48.9773 59.6787 49.0746 59.7013 49.208 59.72L49.292 59.732C49.46 59.756 49.5933 59.8107 49.692 59.896C49.7906 59.9787 49.84 60.0987 49.84 60.256C49.84 60.448 49.7733 60.5947 49.64 60.696C49.5066 60.7973 49.3093 60.848 49.048 60.848ZM49.076 58.964C49.1826 58.964 49.268 58.936 49.332 58.88C49.396 58.824 49.428 58.7227 49.428 58.576C49.428 58.416 49.396 58.3053 49.332 58.244C49.2706 58.1827 49.1853 58.152 49.076 58.152C48.9666 58.152 48.8813 58.1827 48.82 58.244C48.7586 58.3053 48.728 58.416 48.728 58.576C48.728 58.7227 48.7586 58.824 48.82 58.88C48.8813 58.936 48.9666 58.964 49.076 58.964ZM49.076 60.58C49.3773 60.58 49.528 60.484 49.528 60.292C49.528 60.2173 49.5066 60.1587 49.464 60.116C49.424 60.076 49.3746 60.0467 49.316 60.028C49.2573 60.012 49.1773 59.9973 49.076 59.984C48.9746 59.9733 48.8946 59.9587 48.836 59.94C48.78 59.972 48.7346 60.0173 48.7 60.076C48.6653 60.1347 48.648 60.2027 48.648 60.28C48.648 60.48 48.7906 60.58 49.076 60.58ZM51.0417 60.008C50.9403 60.008 50.8897 59.9787 50.8897 59.92V57.28C50.8897 57.2213 50.9403 57.192 51.0417 57.192H51.1377C51.1777 57.192 51.2097 57.1987 51.2337 57.212C51.2577 57.2227 51.2777 57.2427 51.2937 57.272L52.2217 59.06C52.259 59.1293 52.2937 59.2133 52.3257 59.312L52.3457 59.304C52.3243 59.2107 52.3137 59.1227 52.3137 59.04V57.28C52.3137 57.2213 52.3643 57.192 52.4657 57.192H52.5137C52.615 57.192 52.6657 57.2213 52.6657 57.28V59.92C52.6657 59.9787 52.615 60.008 52.5137 60.008H52.4297C52.355 60.008 52.307 59.988 52.2857 59.948L51.3337 58.1C51.2963 58.0307 51.2617 57.9467 51.2297 57.848L51.2097 57.856C51.231 57.9493 51.2417 58.0373 51.2417 58.12V59.92C51.2417 59.9787 51.191 60.008 51.0897 60.008H51.0417ZM53.981 60.024C53.6984 60.024 53.4877 59.9373 53.349 59.764C53.213 59.5907 53.145 59.3253 53.145 58.968C53.145 58.6133 53.2117 58.344 53.345 58.16C53.4784 57.976 53.6744 57.884 53.933 57.884C54.165 57.884 54.3397 57.9733 54.457 58.152C54.5744 58.328 54.633 58.5867 54.633 58.928C54.633 58.952 54.617 58.9853 54.585 59.028C54.553 59.0707 54.525 59.092 54.501 59.092H53.505C53.5184 59.3187 53.561 59.4827 53.633 59.584C53.705 59.6853 53.8197 59.736 53.977 59.736C54.073 59.736 54.153 59.7227 54.217 59.696C54.281 59.6693 54.333 59.6413 54.373 59.612C54.413 59.5827 54.437 59.568 54.445 59.568C54.4717 59.568 54.501 59.5947 54.533 59.648C54.5677 59.7013 54.585 59.7413 54.585 59.768C54.585 59.8 54.557 59.8373 54.501 59.88C54.4477 59.92 54.3744 59.9547 54.281 59.984C54.1877 60.0107 54.0877 60.024 53.981 60.024ZM54.277 58.804C54.277 58.3827 54.1584 58.172 53.921 58.172C53.665 58.172 53.5264 58.3827 53.505 58.804H54.277ZM55.7779 60.024C55.4952 60.024 55.2846 59.9373 55.1459 59.764C55.0099 59.5907 54.9419 59.3253 54.9419 58.968C54.9419 58.6133 55.0086 58.344 55.1419 58.16C55.2752 57.976 55.4712 57.884 55.7299 57.884C55.9619 57.884 56.1366 57.9733 56.2539 58.152C56.3712 58.328 56.4299 58.5867 56.4299 58.928C56.4299 58.952 56.4139 58.9853 56.3819 59.028C56.3499 59.0707 56.3219 59.092 56.2979 59.092H55.3019C55.3152 59.3187 55.3579 59.4827 55.4299 59.584C55.5019 59.6853 55.6166 59.736 55.7739 59.736C55.8699 59.736 55.9499 59.7227 56.0139 59.696C56.0779 59.6693 56.1299 59.6413 56.1699 59.612C56.2099 59.5827 56.2339 59.568 56.2419 59.568C56.2686 59.568 56.2979 59.5947 56.3299 59.648C56.3646 59.7013 56.3819 59.7413 56.3819 59.768C56.3819 59.8 56.3539 59.8373 56.2979 59.88C56.2446 59.92 56.1712 59.9547 56.0779 59.984C55.9846 60.0107 55.8846 60.024 55.7779 60.024ZM56.0739 58.804C56.0739 58.3827 55.9552 58.172 55.7179 58.172C55.4619 58.172 55.3232 58.3827 55.3019 58.804H56.0739ZM57.3668 60.024C57.2414 60.024 57.1308 59.9787 57.0348 59.888C56.9414 59.7973 56.8681 59.6707 56.8148 59.508C56.7641 59.3453 56.7388 59.1573 56.7388 58.944C56.7388 58.6107 56.7988 58.3507 56.9188 58.164C57.0388 57.9773 57.1988 57.884 57.3988 57.884C57.4921 57.884 57.5708 57.9013 57.6348 57.936C57.7014 57.9707 57.7641 58.0213 57.8228 58.088V57.08C57.8228 57.0213 57.8721 56.992 57.9708 56.992H58.0148C58.1161 56.992 58.1668 57.0213 58.1668 57.08V59.408C58.1668 59.576 58.1734 59.7 58.1868 59.78C58.2001 59.86 58.2068 59.9053 58.2068 59.916C58.2068 59.9453 58.1774 59.968 58.1188 59.984C58.0628 59.9973 58.0148 60.004 57.9748 60.004C57.9348 60.004 57.9068 59.9853 57.8908 59.948C57.8774 59.9107 57.8668 59.868 57.8588 59.82C57.8508 59.772 57.8454 59.74 57.8428 59.724C57.7814 59.8227 57.7094 59.8973 57.6268 59.948C57.5468 59.9987 57.4601 60.024 57.3668 60.024ZM57.4508 59.732C57.5174 59.732 57.5828 59.708 57.6468 59.66C57.7134 59.612 57.7721 59.544 57.8228 59.456V58.36C57.7321 58.24 57.6201 58.18 57.4868 58.18C57.2254 58.18 57.0948 58.4333 57.0948 58.94C57.0948 59.1907 57.1241 59.3853 57.1828 59.524C57.2441 59.6627 57.3334 59.732 57.4508 59.732ZM59.1446 60.036C59.0486 60.036 58.9579 60.0227 58.8726 59.996C58.7899 59.9667 58.7232 59.932 58.6726 59.892C58.6246 59.852 58.6006 59.8173 58.6006 59.788C58.6006 59.7587 58.6179 59.7173 58.6526 59.664C58.6872 59.6107 58.7152 59.584 58.7366 59.584C58.7419 59.584 58.7646 59.5987 58.8046 59.628C58.8472 59.6573 58.8952 59.684 58.9486 59.708C59.0019 59.7293 59.0619 59.74 59.1286 59.74C59.2272 59.74 59.3019 59.716 59.3526 59.668C59.4059 59.6173 59.4326 59.544 59.4326 59.448C59.4326 59.3573 59.4032 59.2827 59.3446 59.224C59.2886 59.1627 59.2006 59.104 59.0806 59.048C58.9339 58.9787 58.8246 58.8987 58.7526 58.808C58.6832 58.7173 58.6486 58.5973 58.6486 58.448C58.6486 58.28 58.7032 58.144 58.8126 58.04C58.9246 57.9333 59.0659 57.88 59.2366 57.88C59.3459 57.88 59.4472 57.8973 59.5406 57.932C59.6339 57.9667 59.6806 58.0067 59.6806 58.052C59.6806 58.084 59.6646 58.128 59.6326 58.184C59.6032 58.24 59.5779 58.268 59.5566 58.268C59.5512 58.268 59.5192 58.252 59.4606 58.22C59.4046 58.1853 59.3366 58.168 59.2566 58.168C59.1792 58.168 59.1139 58.1893 59.0606 58.232C59.0099 58.2747 58.9846 58.3347 58.9846 58.412C58.9846 58.4973 59.0099 58.5667 59.0606 58.62C59.1139 58.6733 59.1886 58.724 59.2846 58.772C59.4499 58.852 59.5699 58.9413 59.6446 59.04C59.7219 59.1387 59.7606 59.272 59.7606 59.44C59.7606 59.6187 59.7019 59.7627 59.5846 59.872C59.4672 59.9813 59.3206 60.036 59.1446 60.036ZM60.0747 60.464C60.0454 60.464 60.0187 60.4587 59.9947 60.448C59.9734 60.44 59.9627 60.4253 59.9627 60.404C59.9627 60.3933 59.9667 60.376 59.9747 60.352C59.9827 60.3307 59.9881 60.316 59.9907 60.308C60.0254 60.204 60.0521 60.104 60.0707 60.008C60.0921 59.912 60.1027 59.808 60.1027 59.696C60.1027 59.656 60.1147 59.6253 60.1387 59.604C60.1654 59.58 60.2041 59.568 60.2547 59.568H60.2947C60.3427 59.568 60.3801 59.5787 60.4067 59.6C60.4334 59.6187 60.4467 59.6453 60.4467 59.68C60.4467 59.8293 60.4254 59.9627 60.3827 60.08C60.3401 60.2 60.2881 60.2933 60.2267 60.36C60.1681 60.4293 60.1174 60.464 60.0747 60.464ZM61.6115 60C61.5742 60 61.5462 59.9907 61.5275 59.972C61.5115 59.9533 61.5035 59.9227 61.5035 59.88V57.32C61.5035 57.2773 61.5115 57.2467 61.5275 57.228C61.5462 57.2093 61.5742 57.2 61.6115 57.2H62.7635C62.8142 57.2 62.8395 57.24 62.8395 57.32V57.384C62.8395 57.464 62.8142 57.504 62.7635 57.504H61.8635V58.416H62.6715C62.7222 58.416 62.7475 58.456 62.7475 58.536V58.6C62.7475 58.68 62.7222 58.72 62.6715 58.72H61.8635V59.696H62.7635C62.7902 59.696 62.8088 59.7053 62.8195 59.724C62.8328 59.7427 62.8395 59.7733 62.8395 59.816V59.88C62.8395 59.9227 62.8328 59.9533 62.8195 59.972C62.8088 59.9907 62.7902 60 62.7635 60H61.6115ZM63.1676 60C63.1356 60 63.113 59.996 63.0996 59.988C63.0863 59.98 63.0796 59.964 63.0796 59.94C63.0796 59.924 63.089 59.9 63.1076 59.868L63.6236 58.928L63.1396 58.04C63.1236 58.0027 63.1156 57.9787 63.1156 57.968C63.1156 57.9227 63.1703 57.9 63.2796 57.9H63.3356C63.3783 57.9 63.4116 57.904 63.4356 57.912C63.4596 57.92 63.4783 57.936 63.4916 57.96L63.7676 58.532C63.789 58.572 63.8103 58.6187 63.8316 58.672C63.853 58.6187 63.873 58.572 63.8916 58.532L64.1716 57.96C64.1823 57.936 64.201 57.92 64.2276 57.912C64.2543 57.904 64.289 57.9 64.3316 57.9H64.3796C64.4836 57.9 64.5356 57.9227 64.5356 57.968C64.5356 57.984 64.5263 58.008 64.5076 58.04L64.0236 58.924L64.5436 59.868C64.5596 59.9053 64.5676 59.9293 64.5676 59.94C64.5676 59.964 64.561 59.98 64.5476 59.988C64.5343 59.996 64.5116 60 64.4796 60H64.3516C64.3063 60 64.2716 59.9973 64.2476 59.992C64.2236 59.9867 64.2076 59.9733 64.1996 59.952L63.8876 59.312C63.8743 59.2827 63.861 59.252 63.8476 59.22C63.8343 59.188 63.825 59.164 63.8196 59.148C63.801 59.204 63.7783 59.2587 63.7516 59.312L63.4396 59.952C63.429 59.9707 63.4103 59.984 63.3836 59.992C63.3596 59.9973 63.3263 60 63.2836 60H63.1676ZM65.6178 60.024C65.3324 60.024 65.1204 59.9387 64.9818 59.768C64.8458 59.5973 64.7778 59.3227 64.7778 58.944C64.7778 58.552 64.8498 58.2773 64.9938 58.12C65.1404 57.9627 65.3444 57.884 65.6058 57.884C65.7284 57.884 65.8418 57.9027 65.9458 57.94C66.0524 57.9773 66.1058 58.02 66.1058 58.068C66.1058 58.1 66.0898 58.144 66.0578 58.2C66.0284 58.256 66.0031 58.284 65.9818 58.284C65.9791 58.284 65.9644 58.2787 65.9378 58.268C65.8258 58.204 65.7178 58.172 65.6138 58.172C65.4564 58.172 65.3378 58.232 65.2578 58.352C65.1804 58.4693 65.1418 58.664 65.1418 58.936C65.1418 59.2187 65.1791 59.4227 65.2538 59.548C65.3284 59.6733 65.4524 59.736 65.6258 59.736C65.7484 59.736 65.8591 59.7067 65.9578 59.648C65.9684 59.6427 65.9778 59.6373 65.9858 59.632C65.9964 59.624 66.0044 59.6187 66.0098 59.616C66.0364 59.616 66.0644 59.6427 66.0938 59.696C66.1258 59.7467 66.1418 59.788 66.1418 59.82C66.1418 59.8493 66.1124 59.88 66.0538 59.912C65.9978 59.944 65.9284 59.9707 65.8458 59.992C65.7631 60.0133 65.6871 60.024 65.6178 60.024ZM66.7026 60.008C66.6012 60.008 66.5506 59.9787 66.5506 59.92V57.08C66.5506 57.0213 66.6012 56.992 66.7026 56.992H66.7466C66.8452 56.992 66.8946 57.0213 66.8946 57.08V58.152C66.9506 58.0693 67.0199 58.004 67.1026 57.956C67.1879 57.908 67.2812 57.884 67.3826 57.884C67.5292 57.884 67.6506 57.936 67.7466 58.04C67.8452 58.1413 67.8946 58.2973 67.8946 58.508V59.92C67.8946 59.9787 67.8439 60.008 67.7426 60.008H67.7026C67.6012 60.008 67.5506 59.9787 67.5506 59.92V58.54C67.5506 58.4227 67.5266 58.3333 67.4786 58.272C67.4306 58.208 67.3599 58.176 67.2666 58.176C67.1759 58.176 67.0959 58.208 67.0266 58.272C66.9572 58.336 66.9132 58.3973 66.8946 58.456V59.92C66.8946 59.9787 66.8439 60.008 66.7426 60.008H66.7026ZM68.956 60.024C68.7773 60.024 68.6346 59.9707 68.528 59.864C68.424 59.7547 68.372 59.6013 68.372 59.404C68.372 59.204 68.424 59.0507 68.528 58.944C68.632 58.8373 68.7613 58.7667 68.916 58.732C69.0706 58.6947 69.248 58.6747 69.448 58.672V58.484C69.448 58.3933 69.42 58.3187 69.364 58.26C69.308 58.2013 69.22 58.172 69.1 58.172C69.0066 58.172 68.924 58.184 68.852 58.208C68.7826 58.2293 68.7226 58.2533 68.672 58.28C68.6213 58.304 68.592 58.316 68.584 58.316C68.5573 58.316 68.5266 58.2907 68.492 58.24C68.46 58.1867 68.444 58.1467 68.444 58.12C68.444 58.0853 68.4746 58.0493 68.536 58.012C68.6 57.9747 68.6826 57.944 68.784 57.92C68.888 57.896 68.9946 57.884 69.104 57.884C69.3173 57.884 69.484 57.9373 69.604 58.044C69.724 58.1507 69.784 58.2987 69.784 58.488V59.408C69.784 59.584 69.792 59.7107 69.808 59.788C69.824 59.8627 69.832 59.904 69.832 59.912C69.832 59.944 69.8066 59.968 69.756 59.984C69.7053 59.9973 69.6586 60.004 69.616 60.004C69.576 60.004 69.5466 59.984 69.528 59.944C69.5093 59.9013 69.492 59.8427 69.476 59.768C69.3346 59.9387 69.1613 60.024 68.956 60.024ZM69.024 59.708C69.1973 59.708 69.3386 59.632 69.448 59.48V58.964C69.2986 58.9667 69.1746 58.9773 69.076 58.996C68.98 59.0147 68.8973 59.056 68.828 59.12C68.7586 59.1813 68.724 59.2747 68.724 59.4C68.724 59.6053 68.824 59.708 69.024 59.708ZM70.5538 60.008C70.4551 60.008 70.4058 59.9787 70.4058 59.92V58.508C70.4058 58.3347 70.3991 58.2093 70.3858 58.132C70.3724 58.0547 70.3658 58.012 70.3658 58.004C70.3658 57.972 70.3938 57.9493 70.4498 57.936C70.5084 57.92 70.5578 57.912 70.5978 57.912C70.6351 57.912 70.6604 57.9293 70.6738 57.964C70.6898 57.9987 70.7018 58.0387 70.7098 58.084C70.7178 58.1293 70.7231 58.1627 70.7258 58.184C70.7871 58.0907 70.8618 58.0173 70.9498 57.964C71.0378 57.9107 71.1311 57.884 71.2298 57.884C71.3951 57.884 71.5231 57.94 71.6138 58.052C71.7044 58.1613 71.7498 58.3133 71.7498 58.508V59.92C71.7498 59.9787 71.6991 60.008 71.5978 60.008H71.5578C71.4538 60.008 71.4018 59.9787 71.4018 59.92V58.54C71.4018 58.4227 71.3778 58.3333 71.3298 58.272C71.2818 58.208 71.2111 58.176 71.1178 58.176C71.0458 58.176 70.9764 58.2027 70.9098 58.256C70.8431 58.3067 70.7898 58.3733 70.7498 58.456V59.92C70.7498 59.9787 70.6991 60.008 70.5978 60.008H70.5538ZM72.9034 60.848C72.4288 60.848 72.1914 60.676 72.1914 60.332C72.1914 60.22 72.2194 60.1187 72.2754 60.028C72.3341 59.94 72.4128 59.8707 72.5114 59.82V59.812C72.4714 59.78 72.4394 59.7387 72.4154 59.688C72.3941 59.6373 72.3834 59.5813 72.3834 59.52C72.3834 59.3627 72.4461 59.24 72.5714 59.152C72.3714 59.0533 72.2714 58.86 72.2714 58.572C72.2714 58.364 72.3288 58.1973 72.4434 58.072C72.5581 57.9467 72.7221 57.884 72.9354 57.884C73.0021 57.884 73.0648 57.892 73.1234 57.908H73.7234C73.7768 57.908 73.8034 57.9467 73.8034 58.024V58.072C73.8034 58.112 73.7968 58.1413 73.7834 58.16C73.7728 58.176 73.7528 58.184 73.7234 58.184C73.6088 58.184 73.5314 58.1813 73.4914 58.176L73.4834 58.184C73.5554 58.2987 73.5914 58.4267 73.5914 58.568C73.5914 58.7627 73.5368 58.9227 73.4274 59.048C73.3181 59.1707 73.1648 59.236 72.9674 59.244C72.7754 59.252 72.6794 59.3333 72.6794 59.488C72.6794 59.568 72.7101 59.6227 72.7714 59.652C72.8328 59.6787 72.9301 59.7013 73.0634 59.72L73.1474 59.732C73.3154 59.756 73.4488 59.8107 73.5474 59.896C73.6461 59.9787 73.6954 60.0987 73.6954 60.256C73.6954 60.448 73.6288 60.5947 73.4954 60.696C73.3621 60.7973 73.1648 60.848 72.9034 60.848ZM72.9314 58.964C73.0381 58.964 73.1234 58.936 73.1874 58.88C73.2514 58.824 73.2834 58.7227 73.2834 58.576C73.2834 58.416 73.2514 58.3053 73.1874 58.244C73.1261 58.1827 73.0408 58.152 72.9314 58.152C72.8221 58.152 72.7368 58.1827 72.6754 58.244C72.6141 58.3053 72.5834 58.416 72.5834 58.576C72.5834 58.7227 72.6141 58.824 72.6754 58.88C72.7368 58.936 72.8221 58.964 72.9314 58.964ZM72.9314 60.58C73.2328 60.58 73.3834 60.484 73.3834 60.292C73.3834 60.2173 73.3621 60.1587 73.3194 60.116C73.2794 60.076 73.2301 60.0467 73.1714 60.028C73.1128 60.012 73.0328 59.9973 72.9314 59.984C72.8301 59.9733 72.7501 59.9587 72.6914 59.94C72.6354 59.972 72.5901 60.0173 72.5554 60.076C72.5208 60.1347 72.5034 60.2027 72.5034 60.28C72.5034 60.48 72.6461 60.58 72.9314 60.58ZM74.4062 60.008C74.2996 60.008 74.2463 59.9787 74.2463 59.92V57.988C74.2463 57.9293 74.2996 57.9 74.4062 57.9H74.4223C74.5289 57.9 74.5823 57.9293 74.5823 57.988V59.92C74.5823 59.9787 74.5289 60.008 74.4223 60.008H74.4062ZM74.4143 57.62C74.2969 57.62 74.2383 57.5907 74.2383 57.532V57.292C74.2383 57.2333 74.2969 57.204 74.4143 57.204C74.5316 57.204 74.5903 57.2333 74.5903 57.292V57.532C74.5903 57.5907 74.5316 57.62 74.4143 57.62ZM75.3819 60.008C75.2832 60.008 75.2339 59.9787 75.2339 59.92V58.508C75.2339 58.3347 75.2272 58.2093 75.2139 58.132C75.2005 58.0547 75.1939 58.012 75.1939 58.004C75.1939 57.972 75.2219 57.9493 75.2779 57.936C75.3365 57.92 75.3859 57.912 75.4259 57.912C75.4632 57.912 75.4885 57.9293 75.5019 57.964C75.5179 57.9987 75.5299 58.0387 75.5379 58.084C75.5459 58.1293 75.5512 58.1627 75.5539 58.184C75.6152 58.0907 75.6899 58.0173 75.7779 57.964C75.8659 57.9107 75.9592 57.884 76.0579 57.884C76.2232 57.884 76.3512 57.94 76.4419 58.052C76.5325 58.1613 76.5779 58.3133 76.5779 58.508V59.92C76.5779 59.9787 76.5272 60.008 76.4259 60.008H76.3859C76.2819 60.008 76.2299 59.9787 76.2299 59.92V58.54C76.2299 58.4227 76.2059 58.3333 76.1579 58.272C76.1099 58.208 76.0392 58.176 75.9459 58.176C75.8739 58.176 75.8045 58.2027 75.7379 58.256C75.6712 58.3067 75.6179 58.3733 75.5779 58.456V59.92C75.5779 59.9787 75.5272 60.008 75.4259 60.008H75.3819ZM77.7316 60.848C77.2569 60.848 77.0196 60.676 77.0196 60.332C77.0196 60.22 77.0476 60.1187 77.1036 60.028C77.1622 59.94 77.2409 59.8707 77.3396 59.82V59.812C77.2996 59.78 77.2676 59.7387 77.2436 59.688C77.2222 59.6373 77.2116 59.5813 77.2116 59.52C77.2116 59.3627 77.2742 59.24 77.3996 59.152C77.1996 59.0533 77.0996 58.86 77.0996 58.572C77.0996 58.364 77.1569 58.1973 77.2716 58.072C77.3862 57.9467 77.5502 57.884 77.7636 57.884C77.8302 57.884 77.8929 57.892 77.9516 57.908H78.5516C78.6049 57.908 78.6316 57.9467 78.6316 58.024V58.072C78.6316 58.112 78.6249 58.1413 78.6116 58.16C78.6009 58.176 78.5809 58.184 78.5516 58.184C78.4369 58.184 78.3596 58.1813 78.3196 58.176L78.3116 58.184C78.3836 58.2987 78.4196 58.4267 78.4196 58.568C78.4196 58.7627 78.3649 58.9227 78.2556 59.048C78.1462 59.1707 77.9929 59.236 77.7956 59.244C77.6036 59.252 77.5076 59.3333 77.5076 59.488C77.5076 59.568 77.5382 59.6227 77.5996 59.652C77.6609 59.6787 77.7582 59.7013 77.8916 59.72L77.9756 59.732C78.1436 59.756 78.2769 59.8107 78.3756 59.896C78.4742 59.9787 78.5236 60.0987 78.5236 60.256C78.5236 60.448 78.4569 60.5947 78.3236 60.696C78.1902 60.7973 77.9929 60.848 77.7316 60.848ZM77.7596 58.964C77.8662 58.964 77.9516 58.936 78.0156 58.88C78.0796 58.824 78.1116 58.7227 78.1116 58.576C78.1116 58.416 78.0796 58.3053 78.0156 58.244C77.9542 58.1827 77.8689 58.152 77.7596 58.152C77.6502 58.152 77.5649 58.1827 77.5036 58.244C77.4422 58.3053 77.4116 58.416 77.4116 58.576C77.4116 58.7227 77.4422 58.824 77.5036 58.88C77.5649 58.936 77.6502 58.964 77.7596 58.964ZM77.7596 60.58C78.0609 60.58 78.2116 60.484 78.2116 60.292C78.2116 60.2173 78.1902 60.1587 78.1476 60.116C78.1076 60.076 78.0582 60.0467 77.9996 60.028C77.9409 60.012 77.8609 59.9973 77.7596 59.984C77.6582 59.9733 77.5782 59.9587 77.5196 59.94C77.4636 59.972 77.4182 60.0173 77.3836 60.076C77.3489 60.1347 77.3316 60.2027 77.3316 60.28C77.3316 60.48 77.4742 60.58 77.7596 60.58ZM79.7013 60C79.6639 60 79.6359 59.9907 79.6173 59.972C79.6013 59.9533 79.5933 59.9227 79.5933 59.88V57.32C79.5933 57.2773 79.6013 57.2467 79.6173 57.228C79.6359 57.2093 79.6639 57.2 79.7013 57.2H80.3733C81.0426 57.2 81.3773 57.6667 81.3773 58.6C81.3773 59.5333 81.0426 60 80.3733 60H79.7013ZM80.3653 59.696C80.5653 59.696 80.7226 59.6093 80.8373 59.436C80.9519 59.26 81.0093 58.9813 81.0093 58.6C81.0093 58.2213 80.9519 57.944 80.8373 57.768C80.7226 57.592 80.5653 57.504 80.3653 57.504H79.9573V59.696H80.3653ZM82.5982 60.024C82.3156 60.024 82.1049 59.9373 81.9662 59.764C81.8302 59.5907 81.7622 59.3253 81.7622 58.968C81.7622 58.6133 81.8289 58.344 81.9622 58.16C82.0956 57.976 82.2916 57.884 82.5502 57.884C82.7822 57.884 82.9569 57.9733 83.0742 58.152C83.1916 58.328 83.2502 58.5867 83.2502 58.928C83.2502 58.952 83.2342 58.9853 83.2022 59.028C83.1702 59.0707 83.1422 59.092 83.1182 59.092H82.1222C82.1356 59.3187 82.1782 59.4827 82.2502 59.584C82.3222 59.6853 82.4369 59.736 82.5942 59.736C82.6902 59.736 82.7702 59.7227 82.8342 59.696C82.8982 59.6693 82.9502 59.6413 82.9902 59.612C83.0302 59.5827 83.0542 59.568 83.0622 59.568C83.0889 59.568 83.1182 59.5947 83.1502 59.648C83.1849 59.7013 83.2022 59.7413 83.2022 59.768C83.2022 59.8 83.1742 59.8373 83.1182 59.88C83.0649 59.92 82.9916 59.9547 82.8982 59.984C82.8049 60.0107 82.7049 60.024 82.5982 60.024ZM82.8942 58.804C82.8942 58.3827 82.7756 58.172 82.5382 58.172C82.2822 58.172 82.1436 58.3827 82.1222 58.804H82.8942ZM84.3951 60.024C84.1124 60.024 83.9018 59.9373 83.7631 59.764C83.6271 59.5907 83.5591 59.3253 83.5591 58.968C83.5591 58.6133 83.6258 58.344 83.7591 58.16C83.8924 57.976 84.0884 57.884 84.3471 57.884C84.5791 57.884 84.7538 57.9733 84.8711 58.152C84.9884 58.328 85.0471 58.5867 85.0471 58.928C85.0471 58.952 85.0311 58.9853 84.9991 59.028C84.9671 59.0707 84.9391 59.092 84.9151 59.092H83.9191C83.9324 59.3187 83.9751 59.4827 84.0471 59.584C84.1191 59.6853 84.2338 59.736 84.3911 59.736C84.4871 59.736 84.5671 59.7227 84.6311 59.696C84.6951 59.6693 84.7471 59.6413 84.7871 59.612C84.8271 59.5827 84.8511 59.568 84.8591 59.568C84.8858 59.568 84.9151 59.5947 84.9471 59.648C84.9818 59.7013 84.9991 59.7413 84.9991 59.768C84.9991 59.8 84.9711 59.8373 84.9151 59.88C84.8618 59.92 84.7884 59.9547 84.6951 59.984C84.6018 60.0107 84.5018 60.024 84.3951 60.024ZM84.6911 58.804C84.6911 58.3827 84.5724 58.172 84.3351 58.172C84.0791 58.172 83.9404 58.3827 83.9191 58.804H84.6911ZM85.984 60.024C85.8586 60.024 85.748 59.9787 85.652 59.888C85.5586 59.7973 85.4853 59.6707 85.432 59.508C85.3813 59.3453 85.356 59.1573 85.356 58.944C85.356 58.6107 85.416 58.3507 85.536 58.164C85.656 57.9773 85.816 57.884 86.016 57.884C86.1093 57.884 86.188 57.9013 86.252 57.936C86.3186 57.9707 86.3813 58.0213 86.44 58.088V57.08C86.44 57.0213 86.4893 56.992 86.588 56.992H86.632C86.7333 56.992 86.784 57.0213 86.784 57.08V59.408C86.784 59.576 86.7906 59.7 86.804 59.78C86.8173 59.86 86.824 59.9053 86.824 59.916C86.824 59.9453 86.7946 59.968 86.736 59.984C86.68 59.9973 86.632 60.004 86.592 60.004C86.552 60.004 86.524 59.9853 86.508 59.948C86.4946 59.9107 86.484 59.868 86.476 59.82C86.468 59.772 86.4626 59.74 86.46 59.724C86.3986 59.8227 86.3266 59.8973 86.244 59.948C86.164 59.9987 86.0773 60.024 85.984 60.024ZM86.068 59.732C86.1346 59.732 86.2 59.708 86.264 59.66C86.3306 59.612 86.3893 59.544 86.44 59.456V58.36C86.3493 58.24 86.2373 58.18 86.104 58.18C85.8426 58.18 85.712 58.4333 85.712 58.94C85.712 59.1907 85.7413 59.3853 85.8 59.524C85.8613 59.6627 85.9506 59.732 86.068 59.732ZM87.7618 60.036C87.6658 60.036 87.5751 60.0227 87.4898 59.996C87.4071 59.9667 87.3404 59.932 87.2898 59.892C87.2418 59.852 87.2178 59.8173 87.2178 59.788C87.2178 59.7587 87.2351 59.7173 87.2698 59.664C87.3044 59.6107 87.3324 59.584 87.3538 59.584C87.3591 59.584 87.3818 59.5987 87.4218 59.628C87.4644 59.6573 87.5124 59.684 87.5658 59.708C87.6191 59.7293 87.6791 59.74 87.7458 59.74C87.8444 59.74 87.9191 59.716 87.9698 59.668C88.0231 59.6173 88.0498 59.544 88.0498 59.448C88.0498 59.3573 88.0204 59.2827 87.9618 59.224C87.9058 59.1627 87.8178 59.104 87.6978 59.048C87.5511 58.9787 87.4418 58.8987 87.3698 58.808C87.3004 58.7173 87.2658 58.5973 87.2658 58.448C87.2658 58.28 87.3204 58.144 87.4298 58.04C87.5418 57.9333 87.6831 57.88 87.8538 57.88C87.9631 57.88 88.0644 57.8973 88.1578 57.932C88.2511 57.9667 88.2978 58.0067 88.2978 58.052C88.2978 58.084 88.2818 58.128 88.2498 58.184C88.2204 58.24 88.1951 58.268 88.1738 58.268C88.1684 58.268 88.1364 58.252 88.0778 58.22C88.0218 58.1853 87.9538 58.168 87.8738 58.168C87.7964 58.168 87.7311 58.1893 87.6778 58.232C87.6271 58.2747 87.6018 58.3347 87.6018 58.412C87.6018 58.4973 87.6271 58.5667 87.6778 58.62C87.7311 58.6733 87.8058 58.724 87.9018 58.772C88.0671 58.852 88.1871 58.9413 88.2618 59.04C88.3391 59.1387 88.3778 59.272 88.3778 59.44C88.3778 59.6187 88.3191 59.7627 88.2018 59.872C88.0844 59.9813 87.9378 60.036 87.7618 60.036Z" fill="#50644C"/>
<mask id="path-3-inside-1_1196_6472" fill="white">
<path d="M18.7213 29.5885C22.255 19.8945 29.0127 11.7092 37.8623 6.40404C46.712 1.09883 57.1159 -1.00407 67.3313 0.447617C77.5466 1.89931 86.9529 6.81741 93.9741 14.378C100.995 21.9386 105.205 31.6824 105.898 41.9771C106.591 52.2718 103.726 62.492 97.7813 70.9256C91.8369 79.3591 83.1748 85.4937 73.2462 88.3016C63.3177 91.1095 52.7257 90.4202 43.2448 86.3492C33.7639 82.2781 25.97 75.0726 21.1687 65.9397L22.3637 65.3115C27.0209 74.1704 34.581 81.1597 43.7775 85.1087C52.9739 89.0576 63.2481 89.7263 72.8788 87.0026C82.5096 84.2789 90.9118 78.3283 96.6779 70.1478C102.444 61.9673 105.224 52.0537 104.551 42.0678C103.879 32.082 99.7956 22.6305 92.9849 15.2967C86.1743 7.96289 77.0502 3.19233 67.1413 1.78419C57.2324 0.376045 47.1406 2.41586 38.5565 7.56191C29.9723 12.708 23.4174 20.6476 19.9897 30.0508L18.7213 29.5885Z"/>
</mask>
<path d="M18.7213 29.5885C22.255 19.8945 29.0127 11.7092 37.8623 6.40404C46.712 1.09883 57.1159 -1.00407 67.3313 0.447617C77.5466 1.89931 86.9529 6.81741 93.9741 14.378C100.995 21.9386 105.205 31.6824 105.898 41.9771C106.591 52.2718 103.726 62.492 97.7813 70.9256C91.8369 79.3591 83.1748 85.4937 73.2462 88.3016C63.3177 91.1095 52.7257 90.4202 43.2448 86.3492C33.7639 82.2781 25.97 75.0726 21.1687 65.9397L22.3637 65.3115C27.0209 74.1704 34.581 81.1597 43.7775 85.1087C52.9739 89.0576 63.2481 89.7263 72.8788 87.0026C82.5096 84.2789 90.9118 78.3283 96.6779 70.1478C102.444 61.9673 105.224 52.0537 104.551 42.0678C103.879 32.082 99.7956 22.6305 92.9849 15.2967C86.1743 7.96289 77.0502 3.19233 67.1413 1.78419C57.2324 0.376045 47.1406 2.41586 38.5565 7.56191C29.9723 12.708 23.4174 20.6476 19.9897 30.0508L18.7213 29.5885Z" stroke="#50644C" stroke-width="2" mask="url(#path-3-inside-1_1196_6472)"/>
</svg>
